<svg width="26" height="15" viewBox="0 0 26 15" fill="none" xmlns="http://www.w3.org/2000/svg">
<path d="M16.7468 13.1214L24.4461 4.70138C24.9183 4.18473 25.1835 3.4841 25.1833 2.75363C25.1832 2.02315 24.9177 1.32265 24.4453 0.806249C23.9729 0.289844 23.3322 -0.000172084 22.6642 7.66055e-08C21.9963 0.000172238 21.3558 0.29052 20.8836 0.807168L13.186 9.22719C13.108 9.31268 13.0154 9.38051 12.9134 9.42679C12.8114 9.47307 12.7021 9.49689 12.5916 9.49689C12.4812 9.49689 12.3719 9.47307 12.2699 9.42679C12.1679 9.38051 12.0753 9.31268 11.9973 9.22719L4.29972 0.807168C3.82752 0.29052 3.18699 0.000172238 2.51904 7.66055e-08C1.85109 -0.000172084 1.21043 0.289844 0.738008 0.806249C0.265585 1.32265 8.96454e-05 2.02315 -6.86646e-05 2.75363C-0.000226974 3.4841 0.264965 4.18473 0.737167 4.70138L8.43645 13.1214C9.53952 14.3244 11.0338 15 12.5916 15C14.1495 15 15.6438 14.3244 16.7468 13.1214Z" fill="#00BF19"/>
</svg>
