<svg width="30" height="51" viewBox="0 0 30 51" fill="none" xmlns="http://www.w3.org/2000/svg">
<path id="Vector" d="M3.75719 33.7217L20.5972 49.1203C21.6305 50.0647 23.0318 50.595 24.4927 50.5947C25.9537 50.5944 27.3547 50.0634 28.3875 49.1186C29.4203 48.1737 30.0003 46.8924 30 45.5565C29.9997 44.2206 29.419 42.9396 28.3857 41.9951L11.5456 26.5999C11.3746 26.444 11.239 26.2587 11.1464 26.0548C11.0539 25.8508 11.0062 25.6321 11.0062 25.4113C11.0062 25.1905 11.0539 24.9718 11.1464 24.7679C11.239 24.5639 11.3746 24.3786 11.5456 24.2227L28.3857 8.82747C29.419 7.88307 29.9997 6.60201 30 5.2661C30.0003 3.9302 29.4203 2.6489 28.3875 1.70404C27.3547 0.759197 25.9537 0.228207 24.4927 0.22789C23.0318 0.227577 21.6305 0.757957 20.5972 1.70236L3.75719 17.1009C1.35115 19.3071 0 22.2956 0 25.4113C0 28.527 1.35115 31.5155 3.75719 33.7217Z" fill="#151515"/>
</svg>
