<svg width="43" height="43" viewBox="0 0 43 43" fill="none" xmlns="http://www.w3.org/2000/svg">
<g clip-path="url(#clip0_5_726)">
<path d="M21.5 0C17.2477 0 13.0909 1.26095 9.55525 3.6234C6.01959 5.98585 3.26388 9.3437 1.6366 13.2723C0.00931565 17.2009 -0.416456 21.5239 0.413126 25.6944C1.24271 29.865 3.29039 33.696 6.29721 36.7028C9.30404 39.7096 13.135 41.7573 17.3056 42.5869C21.4762 43.4165 25.7991 42.9907 29.7277 41.3634C33.6563 39.7361 37.0142 36.9804 39.3766 33.4448C41.7391 29.9091 43 25.7523 43 21.5C42.9938 15.7997 40.7267 10.3347 36.696 6.30401C32.6653 2.27332 27.2003 0.00616527 21.5 0ZM21.5 39.4167C17.9564 39.4167 14.4924 38.3659 11.546 36.3972C8.59966 34.4285 6.30324 31.6303 4.94717 28.3564C3.5911 25.0826 3.23629 21.4801 3.92761 18.0046C4.61893 14.5291 6.32532 11.3367 8.83101 8.831C11.3367 6.32531 14.5292 4.61892 18.0046 3.9276C21.4801 3.23628 25.0826 3.59109 28.3564 4.94716C31.6303 6.30323 34.4285 8.59965 36.3972 11.546C38.3659 14.4924 39.4167 17.9564 39.4167 21.5C39.4115 26.2502 37.5221 30.8043 34.1632 34.1632C30.8043 37.5221 26.2502 39.4115 21.5 39.4167Z" fill="#00BF19"/>
<path d="M21.5 10.75C21.0248 10.75 20.5691 10.9388 20.2331 11.2748C19.8971 11.6108 19.7083 12.0665 19.7083 12.5417V20.2906L13.6686 24.0746C13.2647 24.3269 12.9776 24.7294 12.8704 25.1934C12.7632 25.6574 12.8448 26.145 13.0971 26.5489C13.3494 26.9528 13.7518 27.2399 14.2159 27.3471C14.6799 27.4543 15.1675 27.3728 15.5714 27.1205L22.4514 22.8205C22.7113 22.6576 22.9251 22.4307 23.0722 22.1615C23.2194 21.8924 23.2949 21.5899 23.2917 21.2832V12.5417C23.2917 12.0665 23.1029 11.6108 22.7669 11.2748C22.4309 10.9388 21.9752 10.75 21.5 10.75Z" fill="#00BF19"/>
</g>
<defs>
<clipPath id="clip0_5_726">
<rect width="43" height="43" fill="white"/>
</clipPath>
</defs>
</svg>
