<svg width="48" height="49" viewBox="0 0 48 49" fill="none" xmlns="http://www.w3.org/2000/svg">
<path d="M24.3258 0.339249H24.3129H24.3C24.0297 0.339489 23.7609 0.34685 23.4935 0.359306C22.3709 0.411284 21.2753 0.569032 20.2157 0.823968C12.7997 2.60896 7.15443 9.13313 6.45135 17.1272C6.40241 17.6834 6.37602 18.2461 6.37602 18.8153C6.37602 19.3846 6.40241 19.9474 6.45135 20.5036C7.10166 27.8975 11.9801 34.0332 18.5767 36.3253V32.7095C13.8166 30.6164 10.3425 26.0017 9.7459 20.5036C9.68577 19.9491 9.65381 19.3862 9.65381 18.8153C9.65381 18.2447 9.68577 17.6817 9.7459 17.1272C10.4091 11.0156 14.6273 5.99502 20.2157 4.31674C21.2649 4.00151 22.3622 3.80407 23.4935 3.73962C23.7648 3.72417 24.0379 3.71558 24.3129 3.71558C24.5879 3.71558 24.861 3.72417 25.1324 3.73962V27.0588H34.575C35.3477 26.0403 35.9808 24.9048 36.4446 23.6823H28.4102V0.823968C27.3506 0.569032 26.2548 0.411284 25.1324 0.359306C24.8649 0.34685 24.5962 0.339489 24.3258 0.339249Z" fill="url(#paint0_linear_2_30)"/>
<path d="M30.0491 4.92134C34.8092 7.01445 38.2833 11.6291 38.8799 17.1273C38.94 17.6817 38.972 18.2447 38.972 18.8153C38.972 19.3862 38.94 19.9491 38.8799 20.5036C38.2167 26.6152 33.9985 31.6358 28.4102 33.3142C27.361 33.6293 26.2636 33.8266 25.1324 33.8912C24.861 33.9067 24.5879 33.9153 24.3129 33.9153C24.0379 33.9153 23.7648 33.9067 23.4935 33.8912V5.43105L17.4636 14.3343L14.3357 10.2099C13.5699 11.1503 12.9274 12.2002 12.4327 13.333C11.9155 14.5173 11.5591 15.7916 11.3955 17.1273C11.3278 17.6802 11.2927 18.2437 11.2927 18.8153C11.2927 19.3871 11.3278 19.9505 11.3955 20.5036C11.6896 22.9044 12.603 25.1089 13.9641 26.9431L16.3088 24.5279C15.511 23.3454 14.9528 21.9792 14.7091 20.5036C14.6184 19.9546 14.5705 19.3906 14.5705 18.8153C14.5705 18.2402 14.6184 17.6763 14.7091 17.1273C14.7453 16.9082 14.7889 16.6916 14.8386 16.4777L17.4636 19.9085L20.2157 16.143V36.8069C21.2753 37.0618 22.3709 37.2196 23.4935 37.2715C23.7651 37.2841 24.0382 37.2915 24.3129 37.2915C24.5876 37.2915 24.8606 37.2841 25.1324 37.2715C26.2548 37.2196 27.3506 37.0618 28.4102 36.8069C35.826 35.0217 41.4714 28.4976 42.1745 20.5036C42.2234 19.9475 42.2499 19.3846 42.2499 18.8153C42.2499 18.2462 42.2234 17.6834 42.1745 17.1273C41.5242 9.73339 36.6457 3.59762 30.0491 1.3054V4.92134Z" fill="url(#paint1_linear_2_30)"/>
<path fill-rule="evenodd" clip-rule="evenodd" d="M2.90325 45.7655C2.84454 45.6206 2.7669 45.4363 2.67013 45.2127C2.57335 44.9892 2.46919 44.7476 2.35779 44.4878C2.24638 44.2281 2.12754 43.9606 2.00149 43.6857C1.87528 43.4109 1.75659 43.1511 1.64519 42.9064C1.53378 42.6618 1.42964 42.4428 1.33286 42.2495C1.23609 42.0561 1.15835 41.9081 1.09971 41.8053C1.03508 42.5183 0.982378 43.29 0.941351 44.1207C0.900226 44.9515 0.865064 45.7898 0.835798 46.6355H0C0.023332 46.0918 0.0497285 45.5436 0.0791651 44.9907C0.108431 44.438 0.142202 43.8942 0.180346 43.3595C0.218419 42.8248 0.259536 42.3037 0.303516 41.7962C0.347513 41.2888 0.395885 40.8086 0.44869 40.3553H1.19649C1.35485 40.6213 1.52489 40.9354 1.70677 41.2979C1.88856 41.6603 2.07036 42.0395 2.25223 42.4352C2.43393 42.8309 2.60987 43.2267 2.78009 43.6223C2.95013 44.0182 3.10561 44.379 3.24636 44.7052C3.38714 44.379 3.54255 44.0182 3.71267 43.6223C3.88268 43.2267 4.05872 42.8309 4.24052 42.4352C4.42221 42.0395 4.60411 41.6603 4.78598 41.2979C4.96778 40.9354 5.13791 40.6213 5.29627 40.3553H6.04405C6.24344 42.3794 6.39302 44.4728 6.49275 46.6355H5.65695C5.6276 45.7898 5.59242 44.9515 5.5514 44.1207C5.51035 43.29 5.45757 42.5183 5.39304 41.8053C5.33441 41.9081 5.25667 42.0561 5.15989 42.2495C5.06312 42.4428 4.95888 42.6618 4.84757 42.9064C4.73616 43.1511 4.61729 43.4109 4.49125 43.6857C4.36514 43.9606 4.24627 44.2281 4.13494 44.4878C4.02353 44.7476 3.9194 44.9892 3.82262 45.2127C3.72585 45.4363 3.64803 45.6206 3.5895 45.7655H2.90325Z" fill="black"/>
<path fill-rule="evenodd" clip-rule="evenodd" d="M9.32554 46.0283C9.5191 46.0283 9.69066 46.0238 9.84022 46.0148C9.98977 46.0058 10.1144 45.9891 10.2141 45.9649V44.5602C10.1554 44.5301 10.0602 44.5045 9.92819 44.4832C9.79622 44.4621 9.63633 44.4515 9.44871 44.4515C9.32555 44.4515 9.19493 44.4606 9.05722 44.4787C8.91932 44.4968 8.79328 44.5347 8.67892 44.592C8.56454 44.6495 8.46911 44.7279 8.39299 44.8277C8.31668 44.9274 8.27861 45.0588 8.27861 45.2218C8.27861 45.524 8.37233 45.7338 8.56013 45.8517C8.74775 45.9694 9.00289 46.0283 9.32554 46.0283ZM9.25515 41.8053C9.58355 41.8053 9.86068 41.8492 10.0865 41.9367C10.3122 42.0244 10.4941 42.1483 10.632 42.3083C10.7697 42.4684 10.868 42.6588 10.9267 42.8792C10.9853 43.0998 11.0147 43.3429 11.0147 43.6087V46.554C10.9443 46.5661 10.846 46.5827 10.72 46.6039C10.5938 46.625 10.4517 46.6446 10.2933 46.6627C10.1349 46.6809 9.96338 46.6974 9.77864 46.7125C9.59389 46.7276 9.41049 46.7353 9.22877 46.7353C8.97057 46.7353 8.73305 46.7081 8.51616 46.6537C8.2991 46.5993 8.11147 46.5132 7.95311 46.3954C7.79475 46.2775 7.67156 46.1221 7.58359 45.9287C7.49561 45.7354 7.45161 45.5027 7.45161 45.2308C7.45161 44.9712 7.50289 44.7476 7.6056 44.5602C7.7081 44.3731 7.84753 44.222 8.02347 44.1072C8.19944 43.9925 8.40465 43.9078 8.63933 43.8534C8.8738 43.7991 9.12015 43.7719 9.37835 43.7719C9.46039 43.7719 9.54549 43.7764 9.63348 43.7854C9.72145 43.7946 9.80502 43.8067 9.88422 43.8218C9.96338 43.8368 10.0322 43.8504 10.091 43.8624C10.1495 43.8747 10.1906 43.8837 10.2141 43.8896V43.654C10.2141 43.5151 10.1994 43.3776 10.1701 43.2417C10.1408 43.1058 10.0879 42.985 10.0118 42.8792C9.93547 42.7736 9.83142 42.689 9.69944 42.6254C9.5675 42.5621 9.39593 42.5304 9.18479 42.5304C8.91493 42.5304 8.67892 42.55 8.47656 42.5893C8.27421 42.6286 8.12312 42.6694 8.02347 42.7116L7.92669 42.0138C8.03227 41.9655 8.20825 41.9187 8.45458 41.8733C8.70091 41.828 8.96773 41.8053 9.25515 41.8053Z" fill="black"/>
<path fill-rule="evenodd" clip-rule="evenodd" d="M13.434 46.0283C13.7683 46.0283 14.016 45.9831 14.1774 45.8924C14.3387 45.8019 14.4194 45.6568 14.4194 45.4574C14.4194 45.2521 14.3402 45.089 14.1818 44.968C14.0235 44.8474 13.7624 44.7113 13.3988 44.5602C13.2229 44.4878 13.0542 44.4139 12.8929 44.3383C12.7315 44.2628 12.5923 44.1737 12.4751 44.0709C12.3576 43.9683 12.2639 43.8444 12.1935 43.6993C12.1232 43.5543 12.088 43.3762 12.088 43.1647C12.088 42.7478 12.2375 42.417 12.5366 42.1724C12.8358 41.9276 13.2433 41.8053 13.7595 41.8053C13.8884 41.8053 14.0175 41.813 14.1466 41.828C14.2755 41.8431 14.3958 41.8612 14.5073 41.8824C14.6187 41.9037 14.717 41.9263 14.8021 41.9503C14.887 41.9745 14.953 41.9957 15 42.0138L14.8505 42.7388C14.7625 42.6905 14.6246 42.6406 14.437 42.5893C14.2492 42.538 14.0235 42.5123 13.7595 42.5123C13.5308 42.5123 13.3313 42.5591 13.1613 42.6526C12.9911 42.7464 12.9061 42.8929 12.9061 43.0922C12.9061 43.195 12.9251 43.2856 12.9633 43.364C13.0014 43.4426 13.0601 43.5136 13.1393 43.577C13.2185 43.6405 13.3166 43.6993 13.434 43.7537C13.5513 43.8081 13.692 43.8656 13.8563 43.926C14.0732 44.0106 14.2667 44.0935 14.437 44.1751C14.607 44.2568 14.7522 44.3518 14.8725 44.4606C14.9926 44.5694 15.0849 44.7008 15.1496 44.8549C15.214 45.0089 15.2463 45.1978 15.2463 45.4213C15.2463 45.8562 15.0893 46.1855 14.7757 46.4089C14.4618 46.6325 14.0147 46.7442 13.434 46.7442C13.0293 46.7442 12.7126 46.7094 12.4838 46.64C12.2551 46.5707 12.0996 46.5177 12.0176 46.4814L12.1671 45.7566C12.2609 45.7927 12.4104 45.8471 12.6158 45.9196C12.821 45.9921 13.0938 46.0283 13.434 46.0283Z" fill="black"/>
<path fill-rule="evenodd" clip-rule="evenodd" d="M17.3578 46.0283C17.6921 46.0283 17.9398 45.9831 18.1011 45.8924C18.2625 45.8019 18.3432 45.6568 18.3432 45.4574C18.3432 45.2521 18.264 45.089 18.1056 44.968C17.9472 44.8474 17.6862 44.7113 17.3226 44.5602C17.1467 44.4878 16.978 44.4139 16.8168 44.3383C16.6554 44.2628 16.5161 44.1737 16.3989 44.0709C16.2814 43.9683 16.1877 43.8444 16.1173 43.6993C16.0469 43.5543 16.0118 43.3762 16.0118 43.1647C16.0118 42.7478 16.1613 42.417 16.4604 42.1724C16.7596 41.9276 17.1671 41.8053 17.6833 41.8053C17.8122 41.8053 17.9413 41.813 18.0703 41.828C18.1993 41.8431 18.3196 41.8612 18.4312 41.8824C18.5425 41.9037 18.6408 41.9263 18.7258 41.9503C18.8109 41.9745 18.8768 41.9957 18.9237 42.0138L18.7742 42.7388C18.6863 42.6905 18.5484 42.6406 18.3608 42.5893C18.173 42.538 17.9472 42.5123 17.6833 42.5123C17.4546 42.5123 17.2551 42.5591 17.0851 42.6526C16.9149 42.7464 16.8299 42.8929 16.8299 43.0922C16.8299 43.195 16.8489 43.2856 16.8871 43.364C16.9252 43.4426 16.9839 43.5136 17.0631 43.577C17.1423 43.6405 17.2404 43.6993 17.3578 43.7537C17.4751 43.8081 17.6158 43.8656 17.7801 43.926C17.997 44.0106 18.1905 44.0935 18.3608 44.1751C18.5307 44.2568 18.676 44.3518 18.7962 44.4606C18.9164 44.5694 19.0087 44.7008 19.0733 44.8549C19.1378 45.0089 19.1701 45.1978 19.1701 45.4213C19.1701 45.8562 19.0131 46.1855 18.6994 46.4089C18.3856 46.6325 17.9385 46.7442 17.3578 46.7442C16.9531 46.7442 16.6364 46.7094 16.4076 46.64C16.1789 46.5707 16.0234 46.5177 15.9414 46.4814L16.0909 45.7566C16.1846 45.7927 16.3342 45.8471 16.5396 45.9196C16.7448 45.9921 17.0176 46.0283 17.3578 46.0283Z" fill="black"/>
<path fill-rule="evenodd" clip-rule="evenodd" d="M21.7655 46.0283C21.959 46.0283 22.1306 46.0238 22.2801 46.0148C22.4297 46.0058 22.5542 45.9891 22.654 45.9649V44.5602C22.5953 44.5301 22.5002 44.5045 22.3681 44.4832C22.2361 44.4621 22.0762 44.4515 21.8886 44.4515C21.7655 44.4515 21.6349 44.4606 21.4971 44.4787C21.3593 44.4968 21.2332 44.5347 21.1188 44.592C21.0045 44.6495 20.909 44.7279 20.8329 44.8277C20.7567 44.9274 20.7185 45.0588 20.7185 45.2218C20.7185 45.524 20.8123 45.7338 21 45.8517C21.1877 45.9694 21.4428 46.0283 21.7655 46.0283ZM21.6951 41.8053C22.0235 41.8053 22.3006 41.8492 22.5266 41.9367C22.7522 42.0244 22.9341 42.1483 23.0719 42.3083C23.2097 42.4684 23.308 42.6588 23.3667 42.8792C23.4252 43.0998 23.4546 43.3429 23.4546 43.6087V46.554C23.3843 46.5661 23.286 46.5827 23.1599 46.6039C23.0337 46.625 22.8916 46.6446 22.7332 46.6627C22.5749 46.6809 22.4033 46.6974 22.2186 46.7125C22.0338 46.7276 21.8504 46.7353 21.6687 46.7353C21.4106 46.7353 21.173 46.7081 20.9561 46.6537C20.739 46.5993 20.5515 46.5132 20.393 46.3954C20.2347 46.2775 20.1115 46.1221 20.0235 45.9287C19.9355 45.7354 19.8915 45.5027 19.8915 45.2308C19.8915 44.9712 19.9428 44.7476 20.0455 44.5602C20.148 44.3731 20.2874 44.222 20.4634 44.1072C20.6394 43.9925 20.8446 43.9078 21.0792 43.8534C21.3138 43.7991 21.5602 43.7719 21.8183 43.7719C21.9003 43.7719 21.9854 43.7764 22.0734 43.7854C22.1614 43.7946 22.2449 43.8067 22.3241 43.8218C22.4033 43.8368 22.4722 43.8504 22.5309 43.8624C22.5895 43.8747 22.6306 43.8837 22.654 43.8896V43.654C22.654 43.5151 22.6393 43.3776 22.6101 43.2417C22.5806 43.1058 22.5278 42.985 22.4518 42.8792C22.3754 42.7736 22.2713 42.689 22.1394 42.6254C22.0074 42.5621 21.8358 42.5304 21.6247 42.5304C21.3548 42.5304 21.1188 42.55 20.9165 42.5893C20.7141 42.6286 20.563 42.6694 20.4634 42.7116L20.3666 42.0138C20.4722 41.9655 20.6482 41.9187 20.8945 41.8733C21.1408 41.828 21.4077 41.8053 21.6951 41.8053Z" fill="black"/>
<path fill-rule="evenodd" clip-rule="evenodd" d="M27.6687 42.6663C27.5865 42.6421 27.4765 42.6195 27.3387 42.5983C27.2009 42.5772 27.0147 42.5666 26.7802 42.5666C26.3402 42.5666 26.0016 42.7147 25.7639 43.0106C25.5265 43.3067 25.4076 43.6994 25.4076 44.1887C25.4076 44.4606 25.4413 44.6933 25.5088 44.8865C25.5761 45.08 25.6672 45.24 25.7816 45.3668C25.896 45.4937 26.028 45.5875 26.1775 45.6478C26.3271 45.7083 26.4811 45.7384 26.6393 45.7384C26.8563 45.7384 27.0558 45.7067 27.2376 45.6431C27.4194 45.5798 27.5631 45.5058 27.6687 45.4212V42.6663ZM27.6775 46.1643C27.6071 46.2128 27.4708 46.2746 27.2684 46.3501C27.066 46.4256 26.8299 46.4634 26.5601 46.4634C26.2844 46.4634 26.0248 46.4181 25.7816 46.3274C25.5381 46.2368 25.3254 46.0964 25.1438 45.9061C24.9619 45.7157 24.8183 45.4786 24.7126 45.1946C24.6071 44.9107 24.5543 44.5724 24.5543 44.1797C24.5543 43.8353 24.6041 43.5197 24.7039 43.2327C24.8035 42.9457 24.9487 42.698 25.1393 42.4896C25.3299 42.2811 25.563 42.118 25.8387 42.0002C26.1144 41.8823 26.4251 41.8235 26.7714 41.8235C27.1525 41.8235 27.4853 41.8522 27.7699 41.9095C28.0543 41.967 28.2934 42.0199 28.4868 42.0682V46.2731C28.4868 46.998 28.305 47.5235 27.9414 47.8499C27.5777 48.1761 27.0265 48.3393 26.2874 48.3393C26 48.3393 25.7288 48.315 25.4737 48.2667C25.2186 48.2183 24.997 48.161 24.8094 48.0946L24.9589 47.3605C25.1231 47.4269 25.3241 47.4858 25.5616 47.5373C25.7992 47.5885 26.0469 47.6143 26.3051 47.6143C26.7917 47.6143 27.1422 47.5146 27.3564 47.3151C27.5703 47.1159 27.6775 46.7987 27.6775 46.3636V46.1643Z" fill="black"/>
<path fill-rule="evenodd" clip-rule="evenodd" d="M32.7801 43.8262C32.7857 43.4456 32.6935 43.133 32.503 42.8882C32.3123 42.6436 32.0498 42.5213 31.7156 42.5213C31.5278 42.5213 31.3621 42.5591 31.2184 42.6345C31.0747 42.7102 30.953 42.8083 30.8534 42.9291C30.7536 43.0499 30.6759 43.1888 30.6202 43.3459C30.5644 43.5031 30.5279 43.6631 30.5103 43.8262H32.7801ZM29.6393 44.2884C29.6393 43.8715 29.6978 43.5077 29.8153 43.1963C29.9324 42.8853 30.088 42.627 30.2815 42.4216C30.475 42.2163 30.6979 42.0622 30.9501 41.9594C31.2022 41.8568 31.4604 41.8053 31.7243 41.8053C32.3402 41.8053 32.8122 42.0032 33.1408 42.3988C33.4692 42.7947 33.6335 43.3973 33.6335 44.2069V44.3473C33.6335 44.4048 33.6304 44.4576 33.6246 44.5059H30.4927C30.5279 44.9953 30.6656 45.3668 30.9062 45.6205C31.1466 45.8742 31.522 46.0012 32.0323 46.0012C32.3196 46.0012 32.5614 45.9755 32.7581 45.9241C32.9545 45.8729 33.1026 45.8231 33.2024 45.7746L33.3168 46.4815C33.217 46.5358 33.0425 46.5934 32.7932 46.6537C32.5439 46.714 32.2611 46.7443 31.9442 46.7443C31.5454 46.7443 31.2008 46.6822 30.9106 46.5585C30.6202 46.4348 30.3811 46.264 30.1936 46.0465C30.0058 45.829 29.8665 45.5707 29.7756 45.2717C29.6847 44.9725 29.6393 44.645 29.6393 44.2884Z" fill="black"/>
<path fill-rule="evenodd" clip-rule="evenodd" d="M38.5338 45.8742V46.6355H34.8651V40.3554H35.7185V45.8742H38.5338Z" fill="black"/>
<path fill-rule="evenodd" clip-rule="evenodd" d="M40.9267 46.0283C41.1202 46.0283 41.2918 46.0238 41.4413 46.0148C41.5909 46.0058 41.7154 45.9891 41.8153 45.9649V44.5602C41.7565 44.5301 41.6614 44.5045 41.5293 44.4832C41.3974 44.4621 41.2375 44.4515 41.0498 44.4515C40.9267 44.4515 40.7961 44.4606 40.6583 44.4787C40.5205 44.4968 40.3944 44.5347 40.28 44.592C40.1657 44.6495 40.0703 44.7279 39.9941 44.8277C39.9179 44.9274 39.8798 45.0588 39.8798 45.2218C39.8798 45.524 39.9735 45.7338 40.1613 45.8517C40.3489 45.9694 40.604 46.0283 40.9267 46.0283ZM40.8563 41.8053C41.1847 41.8053 41.4618 41.8492 41.6878 41.9367C41.9134 42.0244 42.0953 42.1483 42.2331 42.3083C42.3709 42.4684 42.4692 42.6588 42.5279 42.8792C42.5864 43.0998 42.6158 43.3429 42.6158 43.6087V46.554C42.5454 46.5661 42.4472 46.5827 42.3211 46.6039C42.1949 46.625 42.0528 46.6446 41.8944 46.6627C41.7361 46.6809 41.5645 46.6974 41.3797 46.7125C41.195 46.7276 41.0116 46.7353 40.8299 46.7353C40.5718 46.7353 40.3342 46.7081 40.1173 46.6537C39.9002 46.5993 39.7127 46.5132 39.5542 46.3954C39.3959 46.2775 39.2727 46.1221 39.1847 45.9287C39.0967 45.7354 39.0527 45.5027 39.0527 45.2308C39.0527 44.9712 39.104 44.7476 39.2067 44.5602C39.3092 44.3731 39.4486 44.222 39.6246 44.1072C39.8006 43.9925 40.0058 43.9078 40.2404 43.8534C40.475 43.7991 40.7214 43.7719 40.9795 43.7719C41.0615 43.7719 41.1466 43.7764 41.2346 43.7854C41.3226 43.7946 41.4061 43.8067 41.4853 43.8218C41.5645 43.8368 41.6334 43.8504 41.6921 43.8624C41.7507 43.8747 41.7918 43.8837 41.8153 43.8896V43.654C41.8153 43.5151 41.8005 43.3776 41.7713 43.2417C41.7418 43.1058 41.689 42.985 41.613 42.8792C41.5366 42.7736 41.4326 42.689 41.3006 42.6254C41.1686 42.5621 40.997 42.5304 40.7859 42.5304C40.5161 42.5304 40.28 42.55 40.0777 42.5893C39.8753 42.6286 39.7243 42.6694 39.6246 42.7116L39.5278 42.0138C39.6334 41.9655 39.8094 41.9187 40.0557 41.8733C40.302 41.828 40.5689 41.8053 40.8563 41.8053Z" fill="black"/>
<path fill-rule="evenodd" clip-rule="evenodd" d="M44.7888 45.9014C44.8709 45.9257 44.9868 45.9483 45.1363 45.9694C45.2859 45.9906 45.472 46.0011 45.695 46.0011C46.1349 46.0011 46.4868 45.8517 46.7507 45.5526C47.0147 45.2534 47.1466 44.8291 47.1466 44.2793C47.1466 44.0377 47.1231 43.8112 47.0762 43.5996C47.0292 43.3882 46.953 43.2055 46.8475 43.0514C46.7419 42.8974 46.6056 42.7765 46.4384 42.6889C46.2712 42.6014 46.0702 42.5575 45.8358 42.5575C45.6128 42.5575 45.4075 42.5969 45.2199 42.6753C45.0321 42.7538 44.8885 42.8355 44.7888 42.92V45.9014ZM44.7888 42.1315C44.8885 42.0652 45.0396 41.9957 45.2419 41.9232C45.4443 41.8506 45.6773 41.8144 45.9413 41.8144C46.2697 41.8144 46.5616 41.8748 46.8167 41.9957C47.0719 42.1165 47.2874 42.2856 47.4633 42.5031C47.6393 42.7207 47.7726 42.9804 47.8636 43.2825C47.9545 43.5846 48 43.9168 48 44.2793C48 44.6599 47.9457 45.0028 47.8373 45.3078C47.7286 45.613 47.5747 45.8713 47.3754 46.0828C47.1759 46.2942 46.9355 46.4574 46.654 46.5721C46.3724 46.6868 46.0557 46.7442 45.7038 46.7442C45.3224 46.7442 44.9853 46.717 44.6921 46.6626C44.3987 46.6083 44.1583 46.554 43.9706 46.4996V39.7481L44.7888 39.6032V42.1315Z" fill="black"/>
<defs>
<linearGradient id="paint0_linear_2_30" x1="6.37602" y1="0.339249" x2="36.4446" y2="0.339249" gradientUnits="userSpaceOnUse">
<stop stop-color="#D6D6D6"/>
<stop offset="0.12" stop-color="black"/>
<stop offset="1" stop-color="black"/>
</linearGradient>
<linearGradient id="paint1_linear_2_30" x1="11.2927" y1="1.3054" x2="42.2499" y2="1.3054" gradientUnits="userSpaceOnUse">
<stop stop-color="#D6D6D6"/>
<stop offset="0.12" stop-color="black"/>
<stop offset="1" stop-color="black"/>
</linearGradient>
</defs>
</svg>