<svg width="24" height="24" viewBox="0 0 24 24" fill="none" xmlns="http://www.w3.org/2000/svg">
<g clip-path="url(#clip0_2_64)">
<path d="M20.492 7.96901L10.954 0.975008C10.209 0.429492 9.32754 0.10092 8.40726 0.0257104C7.48698 -0.049499 6.56385 0.131592 5.74018 0.548912C4.91652 0.966231 4.22451 1.60348 3.74084 2.39001C3.25718 3.17655 3.00075 4.08166 3 5.00501V19C2.99856 19.9243 3.25364 20.8308 3.73685 21.6187C4.22005 22.4065 4.91242 23.0449 5.73689 23.4626C6.56136 23.8803 7.48558 24.0611 8.40667 23.9847C9.32776 23.9083 10.2096 23.5778 10.954 23.03L20.492 16.036C21.1249 15.5716 21.6395 14.9646 21.9942 14.2643C22.3489 13.564 22.5338 12.79 22.5338 12.005C22.5338 11.22 22.3489 10.446 21.9942 9.7457C21.6395 9.0454 21.1249 8.43846 20.492 7.97401V7.96901Z" fill="#00BF19"/>
</g>
<defs>
<clipPath id="clip0_2_64">
<rect width="24" height="24" fill="white"/>
</clipPath>
</defs>
</svg>
