<svg width="32" height="32" viewBox="0 0 32 32" fill="none" xmlns="http://www.w3.org/2000/svg">
<g clip-path="url(#clip0_2_80)">
<path d="M28 32H25.3333V25.276C25.3323 24.2307 24.9165 23.2285 24.1774 22.4893C23.4382 21.7501 22.436 21.3344 21.3907 21.3333H10.6093C9.564 21.3344 8.56178 21.7501 7.82262 22.4893C7.08345 23.2285 6.66773 24.2307 6.66667 25.276V32H4V25.276C4.00212 23.5238 4.69914 21.8439 5.93817 20.6048C7.1772 19.3658 8.85708 18.6688 10.6093 18.6667H21.3907C23.1429 18.6688 24.8228 19.3658 26.0618 20.6048C27.3009 21.8439 27.9979 23.5238 28 25.276V32Z" fill="#00BF19"/>
<path d="M16 16C14.4177 16 12.871 15.5308 11.5554 14.6518C10.2398 13.7727 9.21446 12.5233 8.60896 11.0615C8.00346 9.59966 7.84504 7.99113 8.15372 6.43928C8.4624 4.88743 9.22433 3.46197 10.3431 2.34315C11.462 1.22433 12.8874 0.462403 14.4393 0.153721C15.9911 -0.15496 17.5997 0.00346629 19.0615 0.608967C20.5233 1.21447 21.7727 2.23985 22.6518 3.55544C23.5308 4.87104 24 6.41775 24 8C23.9979 10.1211 23.1543 12.1547 21.6545 13.6545C20.1547 15.1544 18.1211 15.9979 16 16ZM16 2.66667C14.9452 2.66667 13.914 2.97947 13.037 3.5655C12.1599 4.15153 11.4763 4.98449 11.0726 5.95903C10.669 6.93357 10.5634 8.00592 10.7691 9.04049C10.9749 10.0751 11.4829 11.0254 12.2288 11.7712C12.9746 12.5171 13.925 13.0251 14.9595 13.2309C15.9941 13.4366 17.0664 13.331 18.041 12.9274C19.0155 12.5237 19.8485 11.8401 20.4345 10.963C21.0205 10.086 21.3333 9.05484 21.3333 8C21.3333 6.58552 20.7714 5.22896 19.7712 4.22877C18.771 3.22857 17.4145 2.66667 16 2.66667Z" fill="#00BF19"/>
</g>
<defs>
<clipPath id="clip0_2_80">
<rect width="32" height="32" fill="white"/>
</clipPath>
</defs>
</svg>
