<svg width="46" height="54" viewBox="0 0 46 54" fill="none" xmlns="http://www.w3.org/2000/svg">
<g clip-path="url(#clip0_2_159)">
<path d="M40.2486 13.5H10.1248C8.50748 13.5 6.97682 12.663 5.91683 11.2522C6.95234 9.87075 8.45665 9 10.1248 9H44.0141C45.0552 9 45.8968 7.992 45.8968 6.75C45.8968 5.508 45.0552 4.5 44.0141 4.5H10.1248C4.92651 4.5 0.71106 9.53775 0.71106 15.75V38.25C0.71106 44.4622 4.92651 49.5 10.1248 49.5H40.2486C43.3683 49.5 45.8968 46.4782 45.8968 42.75V20.25C45.8968 16.5218 43.3683 13.5 40.2486 13.5ZM42.1313 42.75C42.1313 43.9897 41.2879 45 40.2486 45H10.1248C7.0107 45 4.47654 41.9715 4.47654 38.25V15.7455C6.0844 17.1833 8.06127 18 10.1248 18H40.2486C41.2879 18 42.1313 19.0103 42.1313 20.25V42.75ZM38.3658 31.5C38.3658 32.742 37.5224 33.75 36.4831 33.75C35.4438 33.75 34.6004 32.742 34.6004 31.5C34.6004 30.258 35.4438 29.25 36.4831 29.25C37.5224 29.25 38.3658 30.258 38.3658 31.5Z" fill="#979797"/>
</g>
<defs>
<clipPath id="clip0_2_159">
<rect width="45.1857" height="54" fill="white" transform="translate(0.71106)"/>
</clipPath>
</defs>
</svg>
