<svg width="32" height="32" viewBox="0 0 32 32" fill="none" xmlns="http://www.w3.org/2000/svg">
<g clip-path="url(#clip0_5_760)">
<path d="M16 0C11.758 0.00458811 7.69098 1.69177 4.69139 4.69136C1.6918 7.69095 0.00461816 11.7579 3.00547e-05 16C-0.166637 28.7653 14.8787 36.572 25.2 29.0893C25.4163 28.9388 25.6008 28.747 25.7427 28.5249C25.8846 28.3028 25.9813 28.0549 26.0271 27.7953C26.0729 27.5358 26.0669 27.2698 26.0096 27.0125C25.9522 26.7553 25.8446 26.5119 25.6929 26.2964C25.5412 26.0809 25.3483 25.8975 25.1255 25.7568C24.9027 25.6161 24.6542 25.5208 24.3944 25.4764C24.1347 25.432 23.8687 25.4394 23.6117 25.4981C23.3548 25.5568 23.112 25.6658 22.8974 25.8187C15.2267 31.4427 3.81736 25.528 4.00003 16C4.62936 0.0933329 27.372 0.0959994 28 16V18C28 18.5304 27.7893 19.0391 27.4142 19.4142C27.0392 19.7893 26.5305 20 26 20C25.4696 20 24.9609 19.7893 24.5858 19.4142C24.2107 19.0391 24 18.5304 24 18V16C23.664 5.428 8.3347 5.42933 8.00003 16C8.01335 17.5504 8.47565 19.0638 9.33101 20.357C10.1864 21.6502 11.3981 22.6678 12.8197 23.2868C14.2413 23.9057 15.8118 24.0995 17.3412 23.8446C18.8706 23.5898 20.2933 22.8972 21.4374 21.8507C22.2316 22.7807 23.291 23.4459 24.4738 23.757C25.6566 24.0682 26.9062 24.0104 28.0552 23.5915C29.2043 23.1727 30.1979 22.4126 30.9029 21.4133C31.6079 20.4139 31.9907 19.223 32 18V16C31.9954 11.7579 30.3083 7.69095 27.3087 4.69136C24.3091 1.69177 20.2421 0.00458811 16 0ZM16 20C14.9392 20 13.9217 19.5786 13.1716 18.8284C12.4215 18.0783 12 17.0609 12 16C12 14.9391 12.4215 13.9217 13.1716 13.1716C13.9217 12.4214 14.9392 12 16 12C17.0609 12 18.0783 12.4214 18.8285 13.1716C19.5786 13.9217 20 14.9391 20 16C20 17.0609 19.5786 18.0783 18.8285 18.8284C18.0783 19.5786 17.0609 20 16 20Z" fill="#00BF19"/>
</g>
<defs>
<clipPath id="clip0_5_760">
<rect width="32" height="32" fill="white"/>
</clipPath>
</defs>
</svg>
