<svg width="16" height="27" viewBox="0 0 16 27" fill="none" xmlns="http://www.w3.org/2000/svg">
<path d="M13.213 9.34484L4.79299 1.64556C4.27635 1.17336 3.57572 0.908168 2.84524 0.908325C2.11476 0.908483 1.41427 1.17398 0.897863 1.6464C0.381458 2.11882 0.0914417 2.75948 0.0916138 3.42743C0.091786 4.09538 0.382134 4.73591 0.898782 5.20811L9.3188 12.9057C9.40429 12.9837 9.47212 13.0763 9.5184 13.1783C9.56468 13.2803 9.5885 13.3896 9.5885 13.5C9.5885 13.6104 9.56468 13.7198 9.5184 13.8218C9.47212 13.9237 9.40429 14.0164 9.3188 14.0944L0.898782 21.792C0.382134 22.2642 0.091786 22.9047 0.0916138 23.5726C0.0914417 24.2406 0.381458 24.8812 0.897863 25.3537C1.41427 25.8261 2.11476 26.0916 2.84524 26.0917C3.57572 26.0919 4.27635 25.8267 4.79299 25.3545L13.213 17.6552C14.416 16.5522 15.0916 15.0579 15.0916 13.5C15.0916 11.9422 14.416 10.4479 13.213 9.34484Z" fill="#00BF19"/>
</svg>
