<svg width="30" height="51" viewBox="0 0 30 51" fill="none" xmlns="http://www.w3.org/2000/svg">
<path d="M26.2428 16.873L9.40276 1.47447C8.36946 0.530068 6.96821 -0.000314708 5.50725 1.40096e-07C4.04629 0.000314989 2.64531 0.531301 1.6125 1.47615C0.579688 2.421 -0.000344169 3.70231 1.53211e-07 5.03821C0.000344475 6.37411 0.58104 7.65517 1.61434 8.59958L18.4544 23.9948C18.6254 24.1507 18.761 24.336 18.8536 24.54C18.9461 24.7439 18.9938 24.9626 18.9938 25.1834C18.9938 25.4042 18.9461 25.6229 18.8536 25.8269C18.761 26.0308 18.6254 26.2161 18.4544 26.3721L1.61434 41.7673C0.58104 42.7117 0.000344475 43.9927 1.53211e-07 45.3286C-0.000344169 46.6645 0.579688 47.9458 1.6125 48.8907C2.64531 49.8355 4.04629 50.3665 5.50725 50.3668C6.96821 50.3671 8.36946 49.8368 9.40276 48.8924L26.2428 33.4938C28.6489 31.2877 30 28.2991 30 25.1834C30 22.0677 28.6489 19.0792 26.2428 16.873Z" fill="#151515"/>
</svg>
