<svg width="43" height="43" viewBox="0 0 43 43" fill="none" xmlns="http://www.w3.org/2000/svg">
<g clip-path="url(#clip0_6_2)">
<path d="M30.4583 25.0834C30.4583 25.5586 30.2696 26.0143 29.9336 26.3503C29.5976 26.6863 29.1419 26.875 28.6667 26.875H14.3333C13.8582 26.875 13.4024 26.6863 13.0664 26.3503C12.7304 26.0143 12.5417 25.5586 12.5417 25.0834C12.5417 24.6082 12.7304 24.1525 13.0664 23.8165C13.4024 23.4805 13.8582 23.2917 14.3333 23.2917H28.6667C29.1419 23.2917 29.5976 23.4805 29.9336 23.8165C30.2696 24.1525 30.4583 24.6082 30.4583 25.0834ZM23.2917 30.4584H14.3333C13.8582 30.4584 13.4024 30.6471 13.0664 30.9831C12.7304 31.3191 12.5417 31.7749 12.5417 32.25C12.5417 32.7252 12.7304 33.1809 13.0664 33.5169C13.4024 33.8529 13.8582 34.0417 14.3333 34.0417H23.2917C23.7669 34.0417 24.2226 33.8529 24.5586 33.5169C24.8946 33.1809 25.0833 32.7252 25.0833 32.25C25.0833 31.7749 24.8946 31.3191 24.5586 30.9831C24.2226 30.6471 23.7669 30.4584 23.2917 30.4584ZM39.4167 18.7857V34.0417C39.4138 36.4167 38.4691 38.6937 36.7897 40.3731C35.1103 42.0525 32.8334 42.9972 30.4583 43H12.5417C10.1667 42.9972 7.88972 42.0525 6.21032 40.3731C4.53092 38.6937 3.58619 36.4167 3.58334 34.0417V8.95837C3.58619 6.58335 4.53092 4.30642 6.21032 2.62702C7.88972 0.947621 10.1667 0.00288621 12.5417 4.12955e-05H20.6311C22.2787 -0.00419945 23.9108 0.318219 25.4331 0.948656C26.9554 1.57909 28.3376 2.50504 29.4998 3.67296L35.742 9.91871C36.9106 11.0801 37.8371 12.4619 38.4679 13.984C39.0986 15.506 39.4211 17.1381 39.4167 18.7857ZM26.9664 6.20638C26.4025 5.66021 25.7694 5.19036 25.0833 4.80888V12.5417C25.0833 13.0169 25.2721 13.4726 25.6081 13.8086C25.9441 14.1446 26.3998 14.3334 26.875 14.3334H34.6078C34.2261 13.6475 33.7557 13.015 33.2086 12.4521L26.9664 6.20638ZM35.8333 18.7857C35.8333 18.49 35.776 18.207 35.7491 17.9167H26.875C25.4495 17.9167 24.0823 17.3504 23.0743 16.3424C22.0663 15.3344 21.5 13.9672 21.5 12.5417V3.66758C21.2098 3.64071 20.9249 3.58337 20.6311 3.58337H12.5417C11.1161 3.58337 9.74899 4.14967 8.74098 5.15768C7.73297 6.16568 7.16668 7.53284 7.16668 8.95837V34.0417C7.16668 35.4672 7.73297 36.8344 8.74098 37.8424C9.74899 38.8504 11.1161 39.4167 12.5417 39.4167H30.4583C31.8839 39.4167 33.251 38.8504 34.259 37.8424C35.267 36.8344 35.8333 35.4672 35.8333 34.0417V18.7857Z" fill="#00BF19"/>
</g>
<defs>
<clipPath id="clip0_6_2">
<rect width="43" height="43" fill="white"/>
</clipPath>
</defs>
</svg>
