<svg width="56" height="56" viewBox="0 0 56 56" fill="none" xmlns="http://www.w3.org/2000/svg">
<g clip-path="url(#clip0_2_164)">
<path d="M56 18.6667V46.6667H51.3333V21.6767L32.9467 33.5347C31.4741 34.4912 29.7559 35.0002 28 35.0002C26.2441 35.0002 24.5259 34.4912 23.0533 33.5347L0 18.6667L23.0533 3.79638C24.5267 2.84217 26.2446 2.33447 28 2.33447C29.7554 2.33447 31.4733 2.84217 32.9467 3.79638L56 18.6667ZM28 39.6667C25.3502 39.6649 22.7574 38.8975 20.5333 37.457L9.33333 30.24V47.6327L10.017 48.3164C10.2363 48.5334 15.5097 53.6667 28 53.6667C40.4903 53.6667 45.7637 48.5334 45.983 48.3164L46.6667 47.6327V30.24L35.4667 37.457C33.2426 38.8975 30.6498 39.6649 28 39.6667Z" fill="white"/>
</g>
<defs>
<clipPath id="clip0_2_164">
<rect width="56" height="56" fill="white"/>
</clipPath>
</defs>
</svg>
