<svg width="32" height="32" viewBox="0 0 32 32" fill="none" xmlns="http://www.w3.org/2000/svg">
<g clip-path="url(#clip0_2_59)">
<path d="M16 8C14.9452 8 13.914 8.31279 13.037 8.89883C12.1599 9.48486 11.4763 10.3178 11.0726 11.2924C10.669 12.2669 10.5633 13.3392 10.7691 14.3738C10.9749 15.4084 11.4829 16.3587 12.2288 17.1046C12.9746 17.8505 13.9249 18.3584 14.9595 18.5642C15.9941 18.77 17.0664 18.6644 18.041 18.2607C19.0155 17.857 19.8485 17.1734 20.4345 16.2964C21.0205 15.4193 21.3333 14.3882 21.3333 13.3333C21.3333 11.9188 20.7714 10.5623 19.7712 9.5621C18.771 8.5619 17.4145 8 16 8ZM16 16C15.4726 16 14.957 15.8436 14.5185 15.5506C14.0799 15.2576 13.7381 14.8411 13.5363 14.3538C13.3345 13.8666 13.2817 13.3304 13.3846 12.8131C13.4875 12.2958 13.7414 11.8207 14.1144 11.4477C14.4873 11.0748 14.9625 10.8208 15.4798 10.7179C15.997 10.615 16.5332 10.6678 17.0205 10.8697C17.5078 11.0715 17.9242 11.4133 18.2172 11.8518C18.5103 12.2903 18.6667 12.8059 18.6667 13.3333C18.6667 14.0406 18.3857 14.7189 17.8856 15.219C17.3855 15.719 16.7072 16 16 16Z" fill="#00BF19"/>
<path d="M16 32C14.8772 32.0057 13.7695 31.7424 12.7694 31.2321C11.7694 30.7217 10.9061 29.9792 10.252 29.0667C5.17066 22.0573 2.59332 16.788 2.59332 13.404C2.59332 9.84833 4.00581 6.43829 6.52004 3.92405C9.03428 1.40981 12.4443 -0.00267029 16 -0.00267029C19.5557 -0.00267029 22.9657 1.40981 25.4799 3.92405C27.9942 6.43829 29.4067 9.84833 29.4067 13.404C29.4067 16.788 26.8293 22.0573 21.748 29.0667C21.0939 29.9792 20.2306 30.7217 19.2306 31.2321C18.2305 31.7424 17.1227 32.0057 16 32ZM16 2.908C13.2165 2.91117 10.548 4.0183 8.57982 5.98649C6.61163 7.95469 5.5045 10.6232 5.50132 13.4067C5.50132 16.0867 8.02532 21.0427 12.6067 27.3613C12.9956 27.897 13.5058 28.333 14.0956 28.6337C14.6854 28.9343 15.338 29.0911 16 29.0911C16.662 29.0911 17.3146 28.9343 17.9044 28.6337C18.4942 28.333 19.0044 27.897 19.3933 27.3613C23.9747 21.0427 26.4987 16.0867 26.4987 13.4067C26.4955 10.6232 25.3884 7.95469 23.4202 5.98649C21.452 4.0183 18.7834 2.91117 16 2.908Z" fill="#00BF19"/>
</g>
<defs>
<clipPath id="clip0_2_59">
<rect width="32" height="32" fill="white"/>
</clipPath>
</defs>
</svg>
