<svg width="36" height="36" viewBox="0 0 36 36" fill="none" xmlns="http://www.w3.org/2000/svg">
<g clip-path="url(#clip0_2_212)">
<path d="M30.738 11.9535L16.431 1.46254C15.3135 0.644269 13.9913 0.15141 12.6109 0.0385961C11.2305 -0.0742181 9.84578 0.197419 8.61029 0.823398C7.3748 1.44938 6.33677 2.40525 5.61127 3.58505C4.88577 4.76486 4.50114 6.12252 4.50001 7.50754V28.5C4.49785 29.8864 4.88048 31.2462 5.60528 32.428C6.33009 33.6099 7.36865 34.5673 8.60535 35.1939C9.84205 35.8205 11.2284 36.0916 12.61 35.9771C13.9917 35.8625 15.3144 35.3668 16.431 34.545L30.738 24.054C31.6873 23.3574 32.4593 22.447 32.9913 21.3965C33.5234 20.346 33.8007 19.1851 33.8007 18.0075C33.8007 16.83 33.5234 15.669 32.9913 14.6186C32.4593 13.5681 31.6873 12.6577 30.738 11.961V11.9535Z" fill="white"/>
</g>
<defs>
<clipPath id="clip0_2_212">
<rect width="36" height="36" fill="white"/>
</clipPath>
</defs>
</svg>
